<svg xmlns="http://www.w3.org/2000/svg" width="20" height="20" viewBox="0 0 20 20" fill="none">
<path d="M10 16.875C10 16.875 2.1875 12.5 2.1875 7.18749C2.18766 6.24853 2.51301 5.33861 3.10824 4.61243C3.70347 3.88624 4.53183 3.38862 5.45249 3.20416C6.37315 3.01971 7.32928 3.15981 8.15832 3.60064C8.98736 4.04147 9.63814 4.75583 10 5.62226L9.99999 5.62226C10.3619 4.75584 11.0126 4.04148 11.8417 3.60064C12.6707 3.15981 13.6268 3.01971 14.5475 3.20416C15.4682 3.38862 16.2965 3.88624 16.8918 4.61242C17.487 5.33861 17.8123 6.24853 17.8125 7.18749C17.8125 12.5 10 16.875 10 16.875Z" stroke="#13101E" stroke-width="2" stroke-linecap="round" stroke-linejoin="round"/>
</svg>