<svg xmlns="http://www.w3.org/2000/svg" width="20" height="20" viewBox="0 0 20 20" fill="none">
  <path d="M12.2495 17.4993V12.9992C12.2495 12.8003 12.1704 12.6095 12.0298 12.4689C11.8891 12.3282 11.6984 12.2492 11.4995 12.2492H8.49945C8.30054 12.2492 8.10977 12.3282 7.96912 12.4689C7.82847 12.6095 7.74945 12.8003 7.74945 12.9992V17.4993C7.74945 17.6982 7.67045 17.889 7.52981 18.0296C7.38918 18.1703 7.19844 18.2493 6.99954 18.2493L2.50009 18.2499C2.40159 18.2499 2.30406 18.2305 2.21305 18.1928C2.12205 18.1551 2.03936 18.0999 1.9697 18.0303C1.90005 17.9606 1.8448 17.8779 1.8071 17.7869C1.7694 17.6959 1.75 17.5984 1.75 17.4999V8.83173C1.75 8.72724 1.77183 8.62391 1.8141 8.52835C1.85637 8.43279 1.91814 8.34712 1.99545 8.27682L9.49493 1.45794C9.63299 1.33241 9.81287 1.26285 9.99946 1.26285C10.186 1.26284 10.3659 1.33239 10.504 1.4579L18.0045 8.27682C18.0818 8.34711 18.1436 8.43279 18.1859 8.52836C18.2282 8.62392 18.25 8.72727 18.25 8.83176V17.4999C18.25 17.5984 18.2306 17.6959 18.1929 17.7869C18.1552 17.8779 18.1 17.9606 18.0303 18.0303C17.9606 18.0999 17.878 18.1552 17.7869 18.1928C17.6959 18.2305 17.5984 18.2499 17.4999 18.2499L12.9994 18.2493C12.8005 18.2493 12.6097 18.1703 12.4691 18.0296C12.3285 17.889 12.2494 17.6982 12.2495 17.4993V17.4993Z" stroke="#1B4B66" stroke-width="2" stroke-linecap="round" stroke-linejoin="round"/>
</svg>