<svg xmlns="http://www.w3.org/2000/svg" width="99" height="100" viewBox="0 0 99 100" fill="none">
<rect width="99" height="100" rx="8" fill="#F4F4F4"/>
<path d="M79.5122 64.7562L69.4375 37.0183L69.4306 37H69.2317L67.1571 42.7001L63.3802 53.0771L63.3713 53.0689C62.0623 51.9138 60.2155 51.1918 57.8897 50.9229L57.1802 50.8497L57.884 50.7594C61.7196 50.0702 64.2979 47.6478 64.2979 44.7293C64.2979 40.727 60.5336 37.9335 55.1416 37.9335H43.9226V38.1361H47.1826V58.8163L39.2652 37.0183L39.2583 37H39.0594L36.9848 42.7001L28.9829 64.6849L28.9336 64.6905C28.7969 64.7074 28.6616 64.7208 28.5278 64.7309C28.3265 64.7467 28.1264 64.7562 27.9257 64.7562H19.8404L35.2093 38.1361L35.3236 37.936H16.5268V46.1709H16.7262C16.7616 42.1598 19.0975 38.1361 24.2586 38.1361H30.485L15 64.9556H35.8613V57.066H35.6619C35.6347 60.5621 33.6529 63.8826 29.3433 64.6325L29.2063 64.6558L32.4884 55.6346H41.6826L44.9956 64.7562H41.7274V64.9556H54.5546V64.7562H51.2725V50.9968H55.0595C58.9134 50.9968 61.1238 52.7186 61.1238 55.7191V58.1599C61.1238 58.4287 61.1421 58.822 61.1623 59.1508V59.1628L59.1268 64.7549H56.4677V64.9544H61.9721V64.7549H59.3414L61.1951 59.6627C61.1989 59.7119 61.2008 59.7416 61.2008 59.7416L61.2519 60.2004L61.3011 60.504C61.6104 62.3817 62.3287 63.7621 63.4351 64.6066L63.5942 64.7221C64.4349 65.3066 65.4794 65.6026 66.7008 65.6026C68.3184 65.6026 69.3971 65.1993 70.2877 64.25L70.1709 64.1402C69.3504 64.8976 68.6618 65.2043 67.799 65.2043C66.329 65.2043 65.5596 63.4213 65.5596 61.6628V58.2432C65.5674 57.3946 65.4346 56.5507 65.1664 55.7456L65.1298 55.6396V55.6358H71.8549L75.1679 64.7574H71.8997V64.9569H83V64.7574L79.5122 64.7562ZM32.5616 55.4351L37.0908 42.9917L41.61 55.4351H32.5616ZM51.2744 50.7967V38.1361H54.1652C58.0266 38.1361 60.0653 40.4317 60.0653 44.7722C60.0653 49.3885 58.8951 50.7967 55.0595 50.7967H51.2744ZM65.0515 55.4351L65.032 55.3859C64.7331 54.658 64.298 53.9939 63.75 53.4293L63.5607 53.2399L63.5405 53.221L67.2606 42.9917L71.7798 55.4351H65.0515Z" fill="#13101E"/>
</svg>